<svg xmlns="http://www.w3.org/2000/svg" width="2000" height="2000" viewBox="150 50 1200 1150"><defs><clipPath id="a"><path d="M228.047 544H531v331.293H228.047Zm0 0"/></clipPath><clipPath id="b"><path d="M478.605 87.95h331.352V391H478.605Zm0 0"/></clipPath><clipPath id="c"><path d="M677.027 840h331.352v303.336H677.027Zm0 0"/></clipPath><clipPath id="d"><path d="M968.371 363.969h303.578V695H968.371Zm0 0"/></clipPath></defs><g clip-path="url(#a)"><path d="M521.297 782.727 283.305 544.734l-45.797 45.793c-12.938 12.942-12.938 33.918 0 46.856l237.988 237.992 45.8-45.797c12.938-12.937 12.938-33.918 0-46.851"/></g><path d="M520.484 597.086 375.72 452.32l-69.223 69.223 168.192 168.195 45.796-45.797c12.942-12.937 12.942-33.914 0-46.855M539.813 431.582l-62.922-62.918c-4.836-4.84-12.68-4.84-17.52 0l-60.46 60.465 95.1 95.105 45.801-45.797c12.934-12.937 12.934-33.914 0-46.855"/><g clip-path="url(#b)"><path d="m571.172 381.2 237.992-237.993-45.793-45.797c-12.941-12.937-33.918-12.937-46.855 0L478.523 335.398 524.32 381.2c12.938 12.938 33.914 12.938 46.852 0"/></g><path d="M756.813 380.387 901.578 235.62l-69.223-69.223L664.16 334.59l45.797 45.797c12.938 12.941 33.914 12.941 46.856 0M922.316 399.715l62.918-62.922c4.84-4.836 4.84-12.68 0-17.52l-60.464-60.46-95.106 95.101 45.797 45.8c12.937 12.934 33.914 12.934 46.855 0"/><g clip-path="url(#c)"><path d="M915.809 850.086 677.82 1088.078l45.793 45.797c12.942 12.938 33.918 12.938 46.856 0l237.988-237.992-45.793-45.797c-12.941-12.941-33.918-12.941-46.855 0"/></g><path d="M730.172 850.898 585.402 995.66l69.227 69.227L822.824 896.69l-45.797-45.793c-12.937-12.941-33.914-12.941-46.855 0M564.668 831.57l-62.922 62.922c-4.836 4.836-4.836 12.68 0 17.516l60.469 60.465 95.105-95.106-45.797-45.797c-12.937-12.937-33.914-12.937-46.855 0"/><g clip-path="url(#d)"><path d="m978.703 456.535 237.988 237.988 45.801-45.793c12.938-12.94 12.938-33.918 0-46.855L1024.5 363.887l-45.797 45.793c-12.941 12.941-12.941 33.918 0 46.855"/></g><path d="m979.516 642.172 144.761 144.77 69.227-69.227-168.195-168.195-45.793 45.8c-12.942 12.934-12.942 33.914 0 46.852M960.188 807.676l62.917 62.922c4.84 4.836 12.684 4.836 17.52 0l60.46-60.465-95.1-95.11-45.798 45.801c-12.937 12.934-12.937 33.914 0 46.852M288.76 1245.163q-.327.657-.703 1.344-.362.689-.765 1.343a256 256 0 0 1-4.797 7.782 25.8 25.8 0 0 0-3.5 8.406 30.5 30.5 0 0 0-.61 8.437c.188 2.844.336 5.704.454 8.579q.075 1.048 0 2.718-.083 1.676-1.313 2.157-.972.41-2.484.375-1.5-.047-3.047-.25c-1.031-.133-1.899-.204-2.594-.204h-1.516c-.617 0-1.09-.132-1.421-.406q-.563-.575-.563-2.234v-2.406a80 80 0 0 1 0-5.125q.075-2.53.25-5.047.404-4.97-1.11-8.86c-1-2.601-2.042-4.859-3.124-6.765a73.3 73.3 0 0 0-5.86-10.61 165 165 0 0 1-6.343-10.375q-.331-.655-1.235-1.797a21 21 0 0 1-1.578-2.312c-.46-.79-.648-1.484-.578-2.078.082-.594.64-.945 1.672-1.063q3.827-.403 7.484.453 3.668.861 6.188 3.954a12.1 12.1 0 0 1 2.078 3.703 23 23 0 0 0 1.75 3.86q2.184 4.236 5.453 8.14c.219.273.46.484.734.64q.64.332 1.25-.078a8 8 0 0 0 1.11-.89 23 23 0 0 0 3.125-4.563c.843-1.625 1.695-3.273 2.562-4.953a47 47 0 0 1 2.766-4.813 15.5 15.5 0 0 1 3.75-3.984q2.262-1.7 5.156-2.234 2.889-.53 5.25.86.248.157.484.327.248.16.407.406.326.563.125 1.22-.204.642-.532 1.296a515 515 0 0 1-4.156 7.484c-1.406 2.5-2.812 5.024-4.219 7.563M312.106 1256.147q0-6.264 2.39-11.75 2.404-5.497 6.595-9.64 4.201-4.155 9.734-6.516c3.687-1.57 7.617-2.36 11.797-2.36h.156a34.7 34.7 0 0 1 12.156 2.36 28.3 28.3 0 0 1 10.297 6.844q4.156 4.22 6.266 9.64a30.5 30.5 0 0 1 2.11 11.188q-.002 5.767-2 11.187-1.987 5.41-6.048 9.797-4.16 4.472-9.89 6.828-5.737 2.362-12.047 2.532-6.298.153-12.156-1.907c-3.907-1.382-7.297-3.546-10.172-6.484q-4.312-4.295-6.75-10.078-2.438-5.78-2.438-11.64m30.922-20.093q-1.314.002-2.656.203-1.33.206-2.64.687c-2.438.875-4.61 2.227-6.516 4.047a23.5 23.5 0 0 0-4.625 6.125q-2.69 5.128-2.157 10.906.528 5.783 4.032 10.328.153.252.312.454.17.205.328.359c1.79 2.062 3.863 3.68 6.219 4.844a17.65 17.65 0 0 0 7.484 1.843q3.951.08 7.703-1.796 3.812-1.952 6.297-5.204a20.6 20.6 0 0 0 3.532-7.125c.707-2.57.925-5.203.656-7.89a21 21 0 0 0-2.281-7.64c-1.243-2.415-3-4.493-5.282-6.235a19.1 19.1 0 0 0-4.922-2.813 16.5 16.5 0 0 0-5.484-1.093M438.458 1265.913a35 35 0 0 1-1.14 4.562 24.4 24.4 0 0 1-1.875 4.313 26 26 0 0 1-2.61 3.578l-.61.61-.609.609c-2.492 2.387-5.39 4.137-8.703 5.25q-4.97 1.657-10.297 1.422-5.332-.247-10.125-2.235-4.798-1.997-8.265-5.734-3.457-3.749-4.594-9.203a73.6 73.6 0 0 1-1.578-13.047q-.2-6.562 0-13.188.2-6.638.125-13.218 0-1.465.234-2.11.248-.655 1.719-.906a37 37 0 0 1 2.547-.312 24 24 0 0 1 3.422-.094q1.748.082 2.922.656 1.185.563 1.187 1.86a497 497 0 0 0-.078 9.078v9.156q-.001 4.236-.125 8.625-.128 4.394.781 8.453.81 3.674 3 6.516 2.202 2.846 5.453 4.187c2.176.899 4.563 1.047 7.157.453q3.592-.81 5.578-2.969 2-2.155 2.89-5.125c.594-1.988.914-4.066.97-6.234.163-4.176.234-8.379.202-12.61q-.035-6.339.047-12.609.075-1.874 0-4.187c-.055-1.551.328-2.836 1.14-3.86q.968-1.388 2.673-1.593a13.2 13.2 0 0 1 3.547.078c1.218.187 2.289.367 3.218.531q1.622.159 1.985 1.547.374 1.395.203 3.062a31 31 0 0 0-.156 2.875q.076 2.614.125 5.25.044 2.643.125 5.25.075 4.958.234 10.5a54.8 54.8 0 0 1-.719 10.813M499.954 1236.132q-.816.814-2.282.61-1.469-.202-2.593-.204h-9.438q-1.143.001-1.594.781-.454.768-.5 1.828c-.023.711-.03 1.336-.03 1.875v21.438q-.002 10.69.077 21.437 0 1.3-.687 1.703-.69.41-1.906.329a84 84 0 0 0-2.657-.11 30 30 0 0 0-2.718.031q-.89 0-2.11.375c-.812.239-1.492.114-2.031-.375q-.656-.656-.656-2.109v-2.281c0-4.02.007-8.035.03-12.047q.048-6.012.048-11.953v-6.14q-.002-3.06-.078-6.079-.002-.81.156-2.187.17-1.39.125-2.813-.035-1.418-.531-2.437-.487-1.015-1.782-1.016-3.269 0-6.484.047-3.207.033-6.453.11-.41.001-.906-.032a1.3 1.3 0 0 1-.813-.375 1.54 1.54 0 0 1-.406-.766 5 5 0 0 1-.078-.859 85 85 0 0 1-.078-3.703v-3.61c0-.218.007-.437.03-.656a1 1 0 0 1 .298-.578 1.47 1.47 0 0 1 .734-.39q.404-.094.813-.094 10.652.251 21.234.25 10.575.002 21.156-.172.562 0 1.125.047.574.047.985.453.404.409.53 1.015.124.61.204 1.172-.002.985.031 1.97.047.97.047 1.937a10.4 10.4 0 0 1 .031 1.593 2.9 2.9 0 0 1-.437 1.422q-.08.234-.406.563M539.897 1261.85a46 46 0 0 0-5.578 0q-2.8.158-4.844 2.032-1.627 1.471-2 3.875a20 20 0 0 0-.11 4.953q.247 2.565.33 4.515.075.973.233 2.438.17 1.47.204 2.937.043 1.454-.438 2.344-.655 1.236-2.25 1.36c-1.055.07-2.164.007-3.328-.204q-1.753-.327-2.89-.328c-1.407 0-2.423-.039-3.048-.125q-.937-.122-.937-2.406v-17.078q.076-8.952.078-18.016c0-6.05-.055-12.062-.156-18.03 0-1.845.242-3.009.734-3.5.438-.438 1.383-.657 2.844-.657h.578q1.372.093 2.422.094h1.969q.89 0 1.828-.047.935-.048 1.625.281.686.328.687 1.547 0 3.581-.047 7.203a751 751 0 0 0-.03 7.281q-.002.738-.173 2.36a29 29 0 0 0-.125 3.375q.046 1.751.532 2.968.497 1.22 1.796 1.22 1.313 0 2.532.046 1.218.033 2.437.031h4.547q1.467 0 3.906.219 2.45.207 4.766.125c1.539-.063 2.723-.414 3.547-1.063q1.124-.903 1.375-2.28c.164-.927.219-1.891.156-2.891-.055-1-.078-1.938-.078-2.813q.17-3.576.078-7.187a318 318 0 0 1-.078-7.204c-.055-.976.055-1.75.328-2.312.27-.57.922-.86 1.953-.86h6.343a68 68 0 0 0 2.688.079c.54 0 .836.68.891 2.031a45.4 45.4 0 0 1 .078 6.156 123 123 0 0 0-.156 6.203v15.063q0 4.47.234 8.906c.164 2.961.282 5.93.344 8.906 0 .493.023 1.375.078 2.657q.077 1.909 0 4.14-.082 2.238-.61 3.86c-.355 1.086-.937 1.656-1.75 1.718q-2.283.082-4.562.047-2.285-.047-4.547-.047-1.314.001-1.515-1.375-.205-1.387.078-3.062c.195-1.113.297-1.942.297-2.485.101-1.894.156-3.816.156-5.765q-.001-2.935-.406-5.875-.33-2.186-1.672-3.36-1.347-1.183-3.25-1.593a13.5 13.5 0 0 0-3.86-.25q-.986.002-2.046-.032-1.05-.044-2.188-.125M658.101 1285.679a73 73 0 0 1-2.562.14q-1.266.035-2.484.11-5.052.08-10.172-.032a98 98 0 0 0-10.172.282c-.543.054-1.278.093-2.203.125q-1.377.034-2.39-.407-1.018-.451-1.017-1.765.172-8.298.172-16.547-.002-8.264.078-16.563v-13.672q-.002-1.7.032-3.406.046-1.716.047-3.422c0-.757.066-1.625.203-2.593q.198-1.466 1.5-1.875c.164-.063.328-.094.484-.094h.5c5.04.062 10.098.148 15.172.25q7.607.159 15.016 1.39 3.654.563 6.343 2.72 2.684 2.155 3.938 5.296 1.266 3.127.61 6.781-.564 3.251-2.188 5.828a56 56 0 0 0-3.016 5.407 4 4 0 0 1-.203.61c-.086.187-.125.39-.125.608q.093.738.937 1.516.856.768 1.907 1.453 1.06.692 1.562 1.172a24.3 24.3 0 0 1 2.953 3.64 12.3 12.3 0 0 1 1.844 4.344q.732 3.503-.61 7.485-1.345 3.985-3.874 6.594a12.2 12.2 0 0 1-5.657 3.453 32.3 32.3 0 0 1-6.625 1.172m-18.39-41.97v.407a56 56 0 0 0-.156 2.031 7 7 0 0 0 .203 2.282q.28 1.05 1.172 1.53.498.252.984.298.482.033 1.062.031 2.436.094 4.907.172 2.483.081 4.937-.406c1.238-.22 2.383-.852 3.438-1.907q1.593-1.593 1.922-3.468.499-2.356-.532-4.063a6.8 6.8 0 0 0-2.843-2.64 10.4 10.4 0 0 0-3.938-1.11 63 63 0 0 0-2.89-.281 18.5 18.5 0 0 0-3.297.047q-1.628.158-2.844.937-1.219.769-1.547 2.469a29 29 0 0 0-.297 1.828 28 28 0 0 1-.281 1.844m.656 29.282q1.06 1.875 3.047 2.484 1.998.611 4.36.485a65 65 0 0 0 4.312-.36c1.57-.164 3.172-.628 4.797-1.39 1.625-.758 2.867-1.817 3.734-3.172q1.23-1.7.938-3.453c-.188-1.164-.68-2.25-1.47-3.25-.78-1.008-1.687-1.813-2.718-2.406a9.5 9.5 0 0 0-3.906-1.422 48 48 0 0 0-4.14-.375q-2.361-.153-4.61.422-2.238.564-3.703 2.03-1.457 1.455-1.703 4.22-.083 1.143.046 2.28.124 1.145.36 2.282.17.41.281.813.123.409.375.812M700.327 1226.538a.6.6 0 0 0 .282.078q.122 0 .203.078.655.329.765 1.063.123.737.047 1.468v38.563q0 1.705-.078 3.375-.081 1.675.64 2.766.733 1.094 3.016 1.093c2.77-.101 5.535-.156 8.297-.156h8.297c.602 0 1.32-.039 2.156-.125q1.265-.124 2.078.203c.657.219 1.086.735 1.297 1.547q.329 1.22.282 2.844a33 33 0 0 1-.204 3.094l-.234 2.203a.7.7 0 0 0-.078.328q-.001.158-.172.312-.158.177-.562.328-3.018.985-6.516.657a98 98 0 0 0-6.578-.407c-2.555 0-5.121-.039-7.703-.125a241 241 0 0 0-7.672-.125q-1.142.001-3.016.172c-1.25.106-2.383.047-3.39-.172q-1.5-.327-1.735-1.875-.251-1.95-.25-3.984v-3.984a195 195 0 0 1 0-8c.05-2.633.05-5.282 0-7.938v-13.14q-.002-6.561.172-13.141-.002-1.39-.203-3.219c-.133-1.219.035-2.234.516-3.047q.732-1.216 2.437-1.343a18 18 0 0 1 3.594.125q1.875.235 3 .312.328 0 .656.047.329.048.656.125M741.975 1256.147q0-6.264 2.39-11.75 2.404-5.497 6.595-9.64 4.201-4.155 9.734-6.516c3.687-1.57 7.617-2.36 11.797-2.36h.156a34.7 34.7 0 0 1 12.156 2.36 28.3 28.3 0 0 1 10.297 6.844q4.156 4.22 6.266 9.64a30.5 30.5 0 0 1 2.11 11.188q-.002 5.767-2 11.187-1.987 5.41-6.048 9.797-4.16 4.472-9.89 6.828-5.737 2.362-12.047 2.532-6.298.153-12.156-1.907c-3.907-1.382-7.297-3.546-10.172-6.484q-4.312-4.295-6.75-10.078-2.438-5.78-2.438-11.64m30.922-20.093q-1.314.002-2.656.203-1.33.206-2.64.687c-2.438.875-4.61 2.227-6.516 4.047a23.5 23.5 0 0 0-4.625 6.125q-2.69 5.128-2.157 10.906.528 5.783 4.032 10.328.153.252.312.454.17.205.328.359c1.79 2.062 3.863 3.68 6.219 4.844a17.65 17.65 0 0 0 7.484 1.843q3.951.08 7.703-1.796 3.812-1.952 6.297-5.204a20.6 20.6 0 0 0 3.532-7.125c.707-2.57.925-5.203.656-7.89a21 21 0 0 0-2.281-7.64c-1.243-2.415-3-4.493-5.282-6.235a19.1 19.1 0 0 0-4.922-2.813 16.5 16.5 0 0 0-5.484-1.093M871.983 1236.71q0 .329-.328.64a68 68 0 0 1-2.734 3.063q-1.426 1.5-2.797 3.047a5 5 0 0 1-.406.36q-.252.204-.578.374-.815.235-1.875-.812-1.049-1.06-1.61-1.547a29.8 29.8 0 0 0-5.703-3.25q-3.017-1.313-6.422-1.313h-.25q-6.504.08-11.343 3.547-4.846 3.457-7.047 9.563-.972 2.673-.813 5.89a22.9 22.9 0 0 0 1.266 6.36 21.6 21.6 0 0 0 2.969 5.687c1.25 1.711 2.687 3.078 4.312 4.11q4.311 2.67 10.094 2.671 4.062.001 7.39-1.296 3.342-1.295 5.454-3.657 1.136-1.387 2.109-1.75.982-.375 2.375.938a36 36 0 0 1 2.469 2.562 59 59 0 0 1 2.25 2.72q.152.327.359.608.2.282.281.704.327 1.22-.812 2.28-1.141 1.05-2.64 1.829c-1 .512-1.774.93-2.313 1.25q-3.75 2.36-8.235 3.672-4.471 1.299-9.265 1.297-6.423 0-11.438-1.875-5.002-1.875-8.547-4.922-3.533-3.046-5.765-6.672-2.238-3.622-3.203-7.203-2.124-7.717-.954-15 1.185-7.295 5.579-12.985 4.153-5.53 10.421-8.578 6.263-3.06 13.422-3.062h.25c3.469 0 6.867.48 10.203 1.437q4.998 1.423 9.235 4.516l1.703 1.266q1.062.766 1.953 1.656.903.891.984 1.875M921.201 1283.413a25 25 0 0 1-2.078-2.938 45 45 0 0 0-2-3.015l-4.547-6.172a711 711 0 0 0-4.562-6.11q-1.142-1.623-2.36-1.624c-.812 0-1.586.328-2.312.984a9.9 9.9 0 0 0-1.922 2.36 18.4 18.4 0 0 0-1.297 2.593 16.3 16.3 0 0 0-1.187 5.5 46 46 0 0 0 .125 5.656 14.4 14.4 0 0 1 0 3.125q-.16 1.597-2.11 1.75c-.594 0-1.219-.007-1.875-.03a39 39 0 0 0-1.86-.048q-1.234.002-2.827.203c-1.055.137-1.953.094-2.703-.125q-1.546-.405-1.391-1.625c.101-.812.156-1.707.156-2.687v-5.375q0-2.686-.078-5.281v-21.438c0-7.133.023-14.254.078-21.36 0-.656.27-1.1.813-1.343a5.8 5.8 0 0 1 1.843-.438q1.013-.092 1.657-.015c.707.062 1.382.148 2.03.25.657.105 1.337.187 2.048.25q.48 0 .969-.047.48-.046.89.125c.438.055.867.273 1.297.656q.657.564.75 1.297.31 3.91.438 7.766a85 85 0 0 0 .609 7.765q.17 1.066.61 2.172.449 1.095 1.75 1.094.809 0 1.468-.656l1.781-1.782 1.719-1.718a88 88 0 0 0 4.063-4.016 29.7 29.7 0 0 0 3.5-4.531q2.841-4.546 6.75-6.531 3.902-1.999 10.015-2 1.623 0 3.172.078 1.545.08 1.906.812.375.736-1.5 2.844l-8.468 9.437a441 441 0 0 1-8.532 9.282q-1.72 1.78-2 3.422-.28 1.629.328 3.093.61 1.455 1.5 2.75c2.926 3.961 5.868 7.922 8.829 11.891a779 779 0 0 1 8.75 11.953q.81 1.065 1.296 2.125.499 1.048.094 1.75-.408.69-2.281.766-1.471.08-2.938-.125a22 22 0 0 0-3-.203 70 70 0 0 1-3.5-.079q-1.629-.075-3.093-1.546-.58-.575-.813-.891M1005.483 1236.71q0 .329-.328.64a68 68 0 0 1-2.734 3.063q-1.426 1.5-2.797 3.047a5 5 0 0 1-.406.36q-.252.204-.578.374-.815.235-1.875-.812-1.049-1.06-1.61-1.547a29.8 29.8 0 0 0-5.703-3.25q-3.018-1.313-6.422-1.313h-.25q-6.504.08-11.344 3.547-4.844 3.457-7.046 9.563-.972 2.673-.813 5.89a22.9 22.9 0 0 0 1.266 6.36 21.6 21.6 0 0 0 2.968 5.687c1.25 1.711 2.688 3.078 4.313 4.11q4.311 2.67 10.094 2.671 4.062.001 7.39-1.296 3.342-1.295 5.453-3.657 1.137-1.387 2.11-1.75.982-.375 2.375.938a36 36 0 0 1 2.469 2.562 59 59 0 0 1 2.25 2.72q.152.327.359.608.2.282.281.704.327 1.22-.812 2.28-1.141 1.05-2.64 1.829c-1 .512-1.774.93-2.313 1.25q-3.75 2.36-8.235 3.672-4.471 1.299-9.265 1.297-6.423 0-11.438-1.875-5.003-1.875-8.547-4.922-3.533-3.046-5.765-6.672-2.238-3.622-3.204-7.203-2.123-7.717-.953-15 1.185-7.295 5.578-12.985 4.154-5.53 10.422-8.578 6.263-3.06 13.422-3.062h.25c3.469 0 6.867.48 10.203 1.437q4.998 1.423 9.235 4.516l1.703 1.266q1.062.766 1.953 1.656.903.891.984 1.875M1044.53 1261.85a46 46 0 0 0-5.579 0q-2.8.158-4.844 2.032c-1.086.98-1.75 2.273-2 3.875a20 20 0 0 0-.109 4.953q.246 2.565.328 4.515.076.973.235 2.438.169 1.47.203 2.937.043 1.454-.438 2.344-.655 1.236-2.25 1.36c-1.055.07-2.164.007-3.328-.204q-1.753-.327-2.89-.328c-1.407 0-2.422-.039-3.047-.125q-.938-.122-.938-2.406v-17.078q.076-8.952.078-18.016c0-6.05-.055-12.062-.156-18.03 0-1.845.242-3.009.734-3.5.438-.438 1.383-.657 2.844-.657h.578q1.372.093 2.422.094h1.969q.89 0 1.828-.047c.625-.032 1.164.062 1.625.281q.686.328.687 1.547 0 3.581-.046 7.203a751 751 0 0 0-.032 7.281q0 .738-.172 2.36a29 29 0 0 0-.125 3.375q.046 1.751.532 2.968.497 1.22 1.797 1.22 1.312 0 2.53.046 1.22.033 2.438.031h4.547q1.467 0 3.906.219 2.45.207 4.766.125c1.54-.063 2.723-.414 3.547-1.063q1.124-.903 1.375-2.28c.164-.927.219-1.891.156-2.891-.055-1-.078-1.938-.078-2.813q.17-3.576.078-7.187a318 318 0 0 1-.078-7.204c-.055-.976.055-1.75.328-2.312.27-.57.922-.86 1.953-.86h6.344a68 68 0 0 0 2.688.079c.539 0 .835.68.89 2.031a45.4 45.4 0 0 1 .078 6.156 123 123 0 0 0-.156 6.203v15.063q0 4.47.234 8.906c.164 2.961.282 5.93.344 8.906 0 .493.024 1.375.078 2.657q.076 1.909 0 4.14-.082 2.238-.61 3.86c-.355 1.086-.937 1.656-1.75 1.718q-2.283.082-4.562.047-2.285-.047-4.546-.047c-.875 0-1.383-.457-1.516-1.375q-.205-1.387.078-3.062c.195-1.113.297-1.942.297-2.485.101-1.894.156-3.816.156-5.765q-.001-2.935-.406-5.875-.329-2.186-1.672-3.36-1.346-1.183-3.25-1.593a13.5 13.5 0 0 0-3.86-.25q-.985.002-2.046-.032-1.05-.044-2.188-.125M1143.296 1273.241q1.139 2.595 2.36 5.203 1.216 2.613 2.28 5.203.562 1.302.438 1.875-.128.563-1.578.657-2.205.08-4.438.078-2.237.001-4.515-.25-1.706-.155-2.938-1.578c-.812-.946-1.355-1.97-1.625-3.063a22 22 0 0 0-1.578-4.14 8.2 8.2 0 0 0-2.89-3.25q-1.55-1.06-3.063-1.141-1.502-.094-3.203-.094a54 54 0 0 1-3.906.047c-1.305-.031-2.633-.07-3.985-.125a39 39 0 0 0-4.594-.031c-1.492.074-2.968.492-4.437 1.25-1.844.93-3.352 2.218-4.516 3.875a14.9 14.9 0 0 0-2.406 5.484 4.9 4.9 0 0 1-.656 1.797q-.486.815-1.61.89-.327.002-2.203.126c-1.25.086-2.62.14-4.109.171q-2.236.034-3.828-.203c-1.055-.164-1.524-.441-1.422-.828q.168-.405.25-.734.075-.327.156-.64a46 46 0 0 1 2.766-6.47 98 98 0 0 0 3.015-6.39 643 643 0 0 0 3.047-7q1.512-3.497 3.047-7 3.093-6.998 6.11-13.985a750 750 0 0 0 5.859-14c.488-1.132 1.031-1.921 1.625-2.359q.889-.656 2.516-.656h.171c1.032.062 2.047.07 3.047.015a27 27 0 0 1 3.047-.015q2.202.176 3.219 1.265 1.014 1.097 1.828 2.891.982 2.203 1.953 4.36a500 500 0 0 1 1.953 4.343 801 801 0 0 0 3.828 8.672c1.301 2.899 2.579 5.781 3.829 8.656q.153.253 1.25 2.891 1.106 2.643 2.687 6.469c1.063 2.554 2.133 5.133 3.219 7.734m-21.406-11.39a35 35 0 0 1 2.28-.094q.892.001.329-1.625a9.5 9.5 0 0 0-1.016-2.469 79 79 0 0 1-1.343-2.406 28 28 0 0 1-1.594-3.453 59 59 0 0 0-1.5-3.625 19 19 0 0 1-.735-1.86 14 14 0 0 0-.734-1.797q-.562-1.39-.937-1.343c-.243.023-.547.496-.922 1.421a123 123 0 0 0-1.766 4.157 240 240 0 0 1-1.734 4.218 24.6 24.6 0 0 1-1.953 3.625 13.7 13.7 0 0 0-1.72 3.782q-.158.563 0 .968.247.832 1.595.672 1.341-.17 1.906-.172h9.844M1165.497 1225.96h.329q2.027 0 3.984.047 1.95.048 3.984.125 1.467.08 1.469 1.14v30.344q0 3.33-.047 6.719a643 643 0 0 0-.031 6.703c0 2.062.117 4.14.36 6.234a25 25 0 0 1-.048 6.297q-.236 1.548-1.046 2-.814.44-2.36.61c-.492.054-1.242.093-2.25.125q-1.501.033-3.125-.172c-1.086-.133-2.023-.407-2.812-.813q-1.173-.608-1.172-1.75-.002-13.67.031-27.328.046-13.668-.031-27.344 0-1.624.61-2.234.608-.609 2.155-.703M1231.067 1284.304c-3.688-4.664-7.336-9.36-10.938-14.079a827 827 0 0 0-10.937-14q-.41-.48-1.469-1.453c-.71-.656-1.46-1.21-2.25-1.672q-1.173-.685-2.031-.515-.844.158-.844 1.86 0 6.421.234 12.78.249 6.345-.078 12.766a34 34 0 0 0-.078 2.406q0 1.254-.328 2.391-.236 1.064-.687 1.187-.456.111-1.672.11-2.19-.077-4.438-.078h-4.515q-.488 0-.688-1.828-.204-1.83-.203-4.547-.002-2.73.031-5.578c.031-1.907.07-3.57.125-5q.094-2.157.094-2.813c0-5.969-.016-11.945-.047-17.937q-.035-8.998.047-17.938-.002-1.231.156-2.328.17-1.091 1.469-1.672c.863-.32 1.82-.469 2.875-.437q1.593.035 2.906.28a12.06 12.06 0 0 1 5.36 2.438 19.8 19.8 0 0 1 3.984 4.235 292 292 0 0 0 5.016 6.953 750 750 0 0 0 5.156 6.875q2.356 3.017 4.672 6.39 2.327 3.377 5.093 5.985.812.813 1.797 1.047 1.296.327 2.188-.563.902-.89 1.219-2.031.246-.812.28-1.703.048-.904.048-1.719-.159-6.188-.282-12.281-.127-6.107.454-12.203.234-2.028 1.406-2.797 1.185-.78 2.89-.828c1.145-.032 2.301.054 3.47.25q1.746.281 3.124.36.576.001 1.063.25.654.408.734 1.421.075 1.02-.047 2.11-.11 1.094-.203 1.75v6.593c-.055 2.168-.078 4.34-.078 6.516v32.047q-.002 1.798.125 3.796.122 1.986-.125 3.766-.235 1.395-1.016 1.36a32 32 0 0 0-1.906-.047h-6.344q-1.641 0-2.703-.282-1.048-.293-2.11-1.593M470.178 1386.491q1.139 2.595 2.36 5.203 1.216 2.613 2.281 5.203.562 1.302.438 1.875-.127.563-1.579.657-2.204.08-4.437.078-2.237.001-4.516-.25-1.706-.155-2.937-1.578c-.813-.946-1.356-1.97-1.625-3.063a22 22 0 0 0-1.578-4.14 8.2 8.2 0 0 0-2.891-3.25c-1.031-.708-2.055-1.086-3.062-1.141q-1.501-.094-3.204-.094a54 54 0 0 1-3.906.047q-1.957-.044-3.984-.125a39 39 0 0 0-4.594-.031q-2.237.112-4.437 1.25c-1.844.93-3.352 2.218-4.516 3.875a14.9 14.9 0 0 0-2.406 5.484 4.9 4.9 0 0 1-.657 1.797q-.485.815-1.609.89-.328.002-2.203.126c-1.25.086-2.621.14-4.11.171-1.492.024-2.765-.046-3.828-.203-1.054-.164-1.523-.441-1.421-.828q.169-.405.25-.734.074-.327.156-.64a46 46 0 0 1 2.765-6.47 98 98 0 0 0 3.016-6.39 643 643 0 0 0 3.047-7q1.512-3.497 3.047-7 3.092-6.998 6.11-13.985a750 750 0 0 0 5.859-14q.732-1.7 1.625-2.359.889-.656 2.515-.656h.172c1.031.062 2.047.07 3.047.015a27 27 0 0 1 3.047-.015c1.469.117 2.539.539 3.219 1.265q1.013 1.097 1.828 2.891c.656 1.469 1.304 2.922 1.953 4.36a500 500 0 0 1 1.953 4.343 801 801 0 0 0 3.828 8.672c1.3 2.899 2.578 5.781 3.828 8.656q.154.253 1.25 2.89 1.106 2.644 2.688 6.47c1.062 2.554 2.132 5.133 3.218 7.734m-21.406-11.39a35 35 0 0 1 2.281-.094q.891.001.329-1.625a9.5 9.5 0 0 0-1.016-2.47 79 79 0 0 1-1.344-2.405 28 28 0 0 1-1.594-3.453 59 59 0 0 0-1.5-3.625 19 19 0 0 1-.734-1.86 14 14 0 0 0-.734-1.797q-.563-1.39-.938-1.343-.361.034-.922 1.421a123 123 0 0 0-1.765 4.157 240 240 0 0 1-1.735 4.218 24.6 24.6 0 0 1-1.953 3.625 13.7 13.7 0 0 0-1.719 3.782q-.157.563 0 .968.247.832 1.594.672 1.343-.17 1.906-.172h9.844M517.599 1399.335a47 47 0 0 1-2.11.14q-1.065.034-2.125.032-6.093-.075-12-2.078-5.895-1.999-10.453-6.141-.33-.327-.812-.813-.488-.48-.407-1.062.077-.232.235-.438.168-.217.25-.375a72 72 0 0 0 1.719-1.906q.81-.937 1.625-1.922.656-.731 1.265-1.656.608-.938 1.656-1.031.734 0 1.391.422 2.605 1.126 5.172 2.562a46 46 0 0 0 5.203 2.485c1.758.699 3.563 1.062 5.406 1.093 1.844.024 3.711-.484 5.61-1.515q.808-.406 1.547-1.016a4.8 4.8 0 0 0 1.14-1.344q.983-1.78.485-3.25c-.325-.976-.934-1.86-1.829-2.64a15 15 0 0 0-2.968-2.032q-1.628-.857-2.844-1.343a45 45 0 0 0-5.453-1.907 157 157 0 0 1-5.531-1.671 37.5 37.5 0 0 1-5.22-2.204 12.06 12.06 0 0 1-4.218-3.578q-2.283-2.935-2.656-6.797-.362-3.855.453-7.359c.437-2.164 1.316-4.078 2.64-5.734q1.998-2.485 4.844-4.032 5.297-3.093 12.86-3.093 3.168.002 6.297.578a39.6 39.6 0 0 1 6.156 1.625 62 62 0 0 1 3.328 1.265q1.717.69 2.937 1.625 1.22.94 1.547 2.407.327 1.453-.812 3.562a8.2 8.2 0 0 1-.828 1.547q-.488.736-.97 1.39-.408.815-.968 1.141c-.656.43-1.351.453-2.078.078a45 45 0 0 1-1.922-1.062 24.1 24.1 0 0 0-6.219-2.844 16.6 16.6 0 0 0-6.796-.562 10 10 0 0 0-4.22 1.422c-1.304.78-2.155 1.78-2.562 3-.406 1.218-.015 2.617 1.172 4.187a12.5 12.5 0 0 0 4.922 3.844 35.7 35.7 0 0 0 6.219 2.062q3.265.769 6.031 1.907 2.107.814 4.188 1.921a15.4 15.4 0 0 1 3.703 2.72q2.279 2.203 3.203 5.374.936 3.176.781 6.516-.159 3.329-1.39 6.172-1.378 3.25-4.032 5.453a19.7 19.7 0 0 1-5.89 3.39 26.7 26.7 0 0 1-6.672 1.485M577.963 1399.335a47 47 0 0 1-2.11.14q-1.065.034-2.125.032-6.093-.075-12-2.078-5.895-1.999-10.453-6.141-.33-.327-.812-.813-.488-.48-.407-1.062.077-.232.235-.438.169-.217.25-.375a72 72 0 0 0 1.718-1.906q.81-.937 1.625-1.922.657-.731 1.266-1.656.608-.938 1.656-1.031.734 0 1.39.422 2.608 1.126 5.173 2.562a46 46 0 0 0 5.203 2.485q2.639 1.047 5.406 1.093c1.844.024 3.711-.484 5.61-1.515q.808-.406 1.546-1.016a4.8 4.8 0 0 0 1.141-1.344q.983-1.78.484-3.25c-.324-.976-.933-1.86-1.828-2.64a15 15 0 0 0-2.968-2.032q-1.628-.857-2.844-1.343a45 45 0 0 0-5.453-1.907 157 157 0 0 1-5.532-1.671 37.5 37.5 0 0 1-5.218-2.204 12.06 12.06 0 0 1-4.22-3.578c-1.523-1.957-2.405-4.222-2.655-6.797q-.363-3.855.453-7.359c.437-2.164 1.316-4.078 2.64-5.734q1.997-2.485 4.844-4.032 5.296-3.093 12.86-3.093 3.168.002 6.296.578a39.6 39.6 0 0 1 6.157 1.625 62 62 0 0 1 3.328 1.265q1.717.69 2.937 1.625 1.219.94 1.547 2.407c.219.968-.055 2.156-.812 3.562a8.2 8.2 0 0 1-.828 1.547q-.488.736-.97 1.39c-.273.544-.593.923-.968 1.141-.656.43-1.352.453-2.078.078a45 45 0 0 1-1.922-1.062 24.1 24.1 0 0 0-6.219-2.844 16.6 16.6 0 0 0-6.797-.562 10 10 0 0 0-4.218 1.422q-1.956 1.17-2.563 3c-.406 1.218-.015 2.617 1.172 4.187a12.5 12.5 0 0 0 4.922 3.844 35.7 35.7 0 0 0 6.219 2.062q3.264.769 6.03 1.907 2.11.814 4.188 1.921a15.4 15.4 0 0 1 3.704 2.72q2.278 2.203 3.203 5.374c.625 2.117.882 4.29.78 6.516q-.159 3.329-1.39 6.172-1.377 3.25-4.031 5.453a19.7 19.7 0 0 1-5.89 3.39 26.7 26.7 0 0 1-6.672 1.485M610.342 1369.397q0-6.264 2.39-11.75 2.404-5.497 6.594-9.64 4.202-4.155 9.735-6.516c3.687-1.57 7.617-2.36 11.797-2.36h.156a34.7 34.7 0 0 1 12.156 2.36 28.3 28.3 0 0 1 10.297 6.844q4.156 4.22 6.266 9.64a30.5 30.5 0 0 1 2.11 11.188q-.002 5.767-2 11.187-1.987 5.41-6.048 9.797-4.16 4.472-9.89 6.828-5.737 2.362-12.047 2.532-6.298.154-12.157-1.907-5.859-2.075-10.171-6.484-4.312-4.295-6.75-10.078-2.438-5.78-2.438-11.64m30.922-20.093q-1.314.002-2.656.203-1.33.206-2.64.687c-2.438.875-4.61 2.227-6.517 4.047a23.5 23.5 0 0 0-4.625 6.125q-2.689 5.128-2.156 10.906.528 5.783 4.031 10.328.153.253.313.454.17.205.328.359c1.79 2.062 3.863 3.68 6.219 4.844a17.65 17.65 0 0 0 7.484 1.843q3.951.08 7.703-1.796 3.81-1.952 6.297-5.204a20.6 20.6 0 0 0 3.531-7.125c.707-2.57.926-5.203.657-7.89a21 21 0 0 0-2.282-7.64q-1.861-3.622-5.28-6.235a19.1 19.1 0 0 0-4.923-2.813 16.5 16.5 0 0 0-5.484-1.093M740.35 1349.96q0 .329-.328.64a68 68 0 0 1-2.734 3.063q-1.426 1.5-2.797 3.047a5 5 0 0 1-.406.36q-.251.203-.578.374-.814.235-1.875-.812-1.049-1.06-1.61-1.547a29.8 29.8 0 0 0-5.703-3.25q-3.017-1.313-6.422-1.313h-.25q-6.504.08-11.344 3.547-4.844 3.457-7.046 9.563c-.649 1.78-.918 3.746-.813 5.89a22.9 22.9 0 0 0 1.266 6.36 21.6 21.6 0 0 0 2.968 5.687c1.25 1.711 2.688 3.078 4.313 4.11q4.311 2.67 10.094 2.671 4.062.002 7.39-1.296 3.342-1.295 5.453-3.657 1.137-1.387 2.11-1.75.982-.375 2.375.938a36 36 0 0 1 2.469 2.562 59 59 0 0 1 2.25 2.72q.153.327.359.608.199.282.281.704c.219.812-.055 1.574-.812 2.28q-1.142 1.05-2.641 1.829-1.502.769-2.312 1.25-3.751 2.36-8.235 3.672-4.471 1.299-9.265 1.297-6.423 0-11.438-1.875-5.003-1.875-8.547-4.922-3.533-3.046-5.765-6.672-2.239-3.622-3.204-7.203-2.123-7.717-.953-15 1.185-7.295 5.578-12.985 4.154-5.53 10.422-8.578 6.263-3.06 13.422-3.062h.25c3.469 0 6.867.48 10.203 1.437q4.998 1.423 9.235 4.516l1.703 1.266q1.062.766 1.953 1.656.902.891.984 1.875M757.427 1339.21h.329q2.027 0 3.984.047 1.95.047 3.984.125c.977.054 1.47.433 1.47 1.14v30.344q0 3.33-.048 6.719a643 643 0 0 0-.031 6.703c0 2.062.117 4.14.36 6.234a25 25 0 0 1-.048 6.297q-.236 1.548-1.046 2-.814.44-2.36.61c-.492.054-1.242.093-2.25.125q-1.501.033-3.125-.172c-1.086-.133-2.023-.407-2.812-.813q-1.173-.608-1.172-1.75-.002-13.67.031-27.328.046-13.668-.031-27.344 0-1.624.61-2.234.608-.609 2.155-.703M840.497 1386.491q1.139 2.595 2.36 5.203 1.216 2.613 2.28 5.203.563 1.302.438 1.875-.128.563-1.578.657-2.205.08-4.437.078-2.239.001-4.516-.25-1.706-.155-2.938-1.578c-.812-.946-1.355-1.97-1.625-3.063a22 22 0 0 0-1.578-4.14 8.2 8.2 0 0 0-2.89-3.25q-1.55-1.06-3.063-1.141-1.502-.094-3.203-.094a54 54 0 0 1-3.906.047q-1.957-.044-3.985-.125a39 39 0 0 0-4.593-.031q-2.238.112-4.438 1.25c-1.844.93-3.351 2.218-4.515 3.875a14.9 14.9 0 0 0-2.407 5.484 4.9 4.9 0 0 1-.656 1.797q-.485.815-1.61.89-.327.002-2.202.126c-1.25.086-2.622.14-4.11.171-1.492.024-2.765-.046-3.828-.203-1.055-.164-1.523-.441-1.422-.828q.169-.405.25-.734.075-.327.156-.64a46 46 0 0 1 2.766-6.47 98 98 0 0 0 3.016-6.39 643 643 0 0 0 3.047-7q1.511-3.497 3.046-7 3.093-6.998 6.11-13.985a750 750 0 0 0 5.86-14q.732-1.7 1.624-2.359c.594-.437 1.43-.656 2.516-.656h.172c1.03.062 2.047.07 3.047.015a27 27 0 0 1 3.046-.015c1.47.117 2.54.539 3.22 1.265q1.013 1.097 1.827 2.891c.657 1.469 1.305 2.922 1.953 4.36a500 500 0 0 1 1.954 4.343 801 801 0 0 0 3.828 8.672c1.3 2.899 2.578 5.781 3.828 8.656q.153.253 1.25 2.89 1.107 2.644 2.687 6.47c1.063 2.554 2.133 5.133 3.219 7.734m-21.406-11.39a35 35 0 0 1 2.281-.094q.89.001.328-1.625a9.5 9.5 0 0 0-1.015-2.47 79 79 0 0 1-1.344-2.405 28 28 0 0 1-1.594-3.453 59 59 0 0 0-1.5-3.625 19 19 0 0 1-.734-1.86 14 14 0 0 0-.735-1.797q-.562-1.39-.937-1.343-.361.034-.922 1.421a123 123 0 0 0-1.766 4.157 240 240 0 0 1-1.734 4.218 24.6 24.6 0 0 1-1.953 3.625 13.7 13.7 0 0 0-1.719 3.782q-.158.563 0 .968.246.832 1.594.672 1.342-.17 1.906-.172h9.844M906.308 1349.382q-.816.814-2.281.61-1.47-.202-2.594-.204h-9.438q-1.142.001-1.593.781-.456.768-.5 1.828-.034 1.067-.032 1.875v21.438q-.001 10.69.078 21.437 0 1.3-.687 1.703-.69.41-1.906.329a84 84 0 0 0-2.657-.11 30 30 0 0 0-2.718.031q-.89 0-2.11.375c-.812.239-1.492.114-2.03-.375q-.657-.656-.657-2.109v-2.281q-.002-6.03.031-12.047.047-6.012.047-11.953v-6.14q0-3.06-.078-6.079-.001-.81.156-2.187.17-1.39.125-2.813-.035-1.418-.531-2.437-.486-1.015-1.781-1.016-3.269 0-6.485.047-3.206.033-6.453.11-.409.001-.906-.032a1.3 1.3 0 0 1-.813-.375 1.54 1.54 0 0 1-.406-.766 5 5 0 0 1-.078-.86 85 85 0 0 1-.078-3.702v-3.61q-.002-.327.031-.656a1 1 0 0 1 .297-.578 1.47 1.47 0 0 1 .734-.39q.404-.094.813-.094 10.652.251 21.234.25 10.576.002 21.156-.172.563 0 1.125.047.574.046.985.453.404.408.531 1.015.123.61.203 1.172-.002.985.031 1.97.048.97.047 1.937a10.4 10.4 0 0 1 .032 1.593 2.9 2.9 0 0 1-.438 1.422c-.055.156-.187.344-.406.563M924.283 1339.21h.328q2.027 0 3.984.047 1.95.047 3.985.125c.976.054 1.468.433 1.468 1.14v30.344q0 3.33-.047 6.719a643 643 0 0 0-.03 6.703c0 2.062.116 4.14.359 6.234a25 25 0 0 1-.047 6.297q-.237 1.548-1.047 2-.813.44-2.36.61c-.492.054-1.242.093-2.25.125q-1.501.033-3.125-.172c-1.086-.133-2.023-.407-2.812-.813q-1.172-.608-1.172-1.75-.002-13.67.031-27.328.047-13.668-.031-27.344 0-1.624.61-2.234.608-.609 2.156-.703M948.852 1369.397q0-6.264 2.39-11.75 2.404-5.497 6.595-9.64 4.201-4.155 9.734-6.516c3.687-1.57 7.617-2.36 11.797-2.36h.156a34.7 34.7 0 0 1 12.156 2.36 28.3 28.3 0 0 1 10.297 6.844q4.156 4.22 6.266 9.64a30.5 30.5 0 0 1 2.11 11.188q-.002 5.767-2 11.187-1.987 5.41-6.048 9.797-4.16 4.472-9.89 6.828-5.737 2.362-12.047 2.532-6.299.154-12.156-1.907-5.86-2.075-10.172-6.484-4.313-4.295-6.75-10.078-2.438-5.78-2.438-11.64m30.922-20.093q-1.314.002-2.656.203-1.33.206-2.64.687c-2.438.875-4.61 2.227-6.516 4.047a23.5 23.5 0 0 0-4.625 6.125q-2.69 5.128-2.157 10.906.528 5.783 4.032 10.328.153.253.312.454.17.205.328.359c1.79 2.062 3.863 3.68 6.219 4.844a17.65 17.65 0 0 0 7.484 1.843q3.951.08 7.703-1.796 3.811-1.952 6.297-5.204a20.6 20.6 0 0 0 3.532-7.125c.707-2.57.925-5.203.656-7.89a21 21 0 0 0-2.281-7.64c-1.243-2.415-3-4.493-5.282-6.235a19.1 19.1 0 0 0-4.922-2.813 16.5 16.5 0 0 0-5.484-1.093M1065.673 1397.554c-3.688-4.664-7.336-9.36-10.938-14.079a827 827 0 0 0-10.937-14q-.41-.48-1.469-1.453c-.71-.656-1.46-1.21-2.25-1.672q-1.173-.685-2.031-.515-.844.158-.844 1.86 0 6.421.235 12.78.248 6.345-.079 12.766a34 34 0 0 0-.078 2.406q0 1.254-.328 2.39-.235 1.067-.687 1.188-.456.111-1.672.11-2.19-.077-4.438-.078h-4.515q-.488 0-.688-1.828-.204-1.83-.203-4.547-.002-2.73.031-5.578c.032-1.907.07-3.57.125-5q.094-2.156.094-2.813c0-5.969-.016-11.945-.047-17.937q-.035-8.998.047-17.938-.001-1.231.156-2.328.17-1.091 1.469-1.672c.863-.32 1.82-.469 2.875-.437q1.594.035 2.906.28a12.06 12.06 0 0 1 5.36 2.438 19.8 19.8 0 0 1 3.984 4.235 292 292 0 0 0 5.016 6.953 750 750 0 0 0 5.156 6.875q2.356 3.016 4.672 6.39 2.327 3.377 5.094 5.985.81.813 1.796 1.047 1.296.327 2.188-.563.902-.89 1.219-2.031.246-.812.28-1.703.048-.904.048-1.719-.16-6.188-.281-12.281-.128-6.107.453-12.203.234-2.029 1.406-2.797 1.185-.78 2.89-.828c1.145-.032 2.301.054 3.47.25q1.746.281 3.124.36.576.001 1.063.25.654.409.734 1.42.075 1.02-.047 2.11-.11 1.095-.203 1.75v6.594c-.055 2.168-.078 4.34-.078 6.516v32.047q-.001 1.798.125 3.796.123 1.986-.125 3.766-.235 1.395-1.016 1.36a32 32 0 0 0-1.906-.047h-6.344q-1.641 0-2.703-.282-1.048-.293-2.11-1.593m0 0"/></svg>